<mxfile host="Electron" agent="Mozilla/5.0 (Windows NT 10.0; Win64; x64) AppleWebKit/537.36 (KHTML, like Gecko) draw.io/24.7.5 Chrome/126.0.6478.183 Electron/31.3.0 Safari/537.36" version="24.7.5" pages="2">
  <diagram id="C5RBs43oDa-KdzZeNtuy" name="客户端启动流程">
    <mxGraphModel dx="1434" dy="836" grid="1" gridSize="10" guides="1" tooltips="1" connect="1" arrows="1" fold="1" page="1" pageScale="1" pageWidth="827" pageHeight="1169" math="0" shadow="0">
      <root>
        <mxCell id="WIyWlLk6GJQsqaUBKTNV-0" />
        <mxCell id="WIyWlLk6GJQsqaUBKTNV-1" parent="WIyWlLk6GJQsqaUBKTNV-0" />
        <mxCell id="WIyWlLk6GJQsqaUBKTNV-2" value="" style="rounded=0;html=1;jettySize=auto;orthogonalLoop=1;fontSize=11;endArrow=block;endFill=0;endSize=8;strokeWidth=1;shadow=0;labelBackgroundColor=none;edgeStyle=orthogonalEdgeStyle;" parent="WIyWlLk6GJQsqaUBKTNV-1" source="WIyWlLk6GJQsqaUBKTNV-3" target="WIyWlLk6GJQsqaUBKTNV-6" edge="1">
          <mxGeometry relative="1" as="geometry" />
        </mxCell>
        <mxCell id="WIyWlLk6GJQsqaUBKTNV-3" value="启动框架" style="rounded=1;whiteSpace=wrap;html=1;fontSize=12;glass=0;strokeWidth=1;shadow=0;" parent="WIyWlLk6GJQsqaUBKTNV-1" vertex="1">
          <mxGeometry x="340" y="20" width="120" height="40" as="geometry" />
        </mxCell>
        <mxCell id="WIyWlLk6GJQsqaUBKTNV-4" value="" style="rounded=0;html=1;jettySize=auto;orthogonalLoop=1;fontSize=11;endArrow=block;endFill=0;endSize=8;strokeWidth=1;shadow=0;labelBackgroundColor=none;edgeStyle=orthogonalEdgeStyle;" parent="WIyWlLk6GJQsqaUBKTNV-1" source="WIyWlLk6GJQsqaUBKTNV-6" target="WIyWlLk6GJQsqaUBKTNV-10" edge="1">
          <mxGeometry y="20" relative="1" as="geometry">
            <mxPoint as="offset" />
          </mxGeometry>
        </mxCell>
        <mxCell id="WIyWlLk6GJQsqaUBKTNV-6" value="游戏启动" style="rhombus;whiteSpace=wrap;html=1;shadow=0;fontFamily=Helvetica;fontSize=12;align=center;strokeWidth=1;spacing=6;spacingTop=-4;" parent="WIyWlLk6GJQsqaUBKTNV-1" vertex="1">
          <mxGeometry x="350" y="110" width="100" height="80" as="geometry" />
        </mxCell>
        <mxCell id="WIyWlLk6GJQsqaUBKTNV-9" value="否" style="edgeStyle=orthogonalEdgeStyle;rounded=0;html=1;jettySize=auto;orthogonalLoop=1;fontSize=11;endArrow=block;endFill=0;endSize=8;strokeWidth=1;shadow=0;labelBackgroundColor=none;" parent="WIyWlLk6GJQsqaUBKTNV-1" source="WIyWlLk6GJQsqaUBKTNV-10" target="WIyWlLk6GJQsqaUBKTNV-12" edge="1">
          <mxGeometry y="10" relative="1" as="geometry">
            <mxPoint as="offset" />
          </mxGeometry>
        </mxCell>
        <mxCell id="RxQZ7hR19uwEo2QJ2o0d-3" value="" style="edgeStyle=orthogonalEdgeStyle;rounded=0;orthogonalLoop=1;jettySize=auto;html=1;" parent="WIyWlLk6GJQsqaUBKTNV-1" source="WIyWlLk6GJQsqaUBKTNV-10" target="RxQZ7hR19uwEo2QJ2o0d-2" edge="1">
          <mxGeometry relative="1" as="geometry" />
        </mxCell>
        <mxCell id="RxQZ7hR19uwEo2QJ2o0d-41" value="是" style="edgeLabel;html=1;align=center;verticalAlign=middle;resizable=0;points=[];" parent="RxQZ7hR19uwEo2QJ2o0d-3" vertex="1" connectable="0">
          <mxGeometry x="-0.32" relative="1" as="geometry">
            <mxPoint as="offset" />
          </mxGeometry>
        </mxCell>
        <mxCell id="WIyWlLk6GJQsqaUBKTNV-10" value="获取全局信息" style="rhombus;whiteSpace=wrap;html=1;shadow=0;fontFamily=Helvetica;fontSize=12;align=center;strokeWidth=1;spacing=6;spacingTop=-4;" parent="WIyWlLk6GJQsqaUBKTNV-1" vertex="1">
          <mxGeometry x="350" y="230" width="100" height="80" as="geometry" />
        </mxCell>
        <mxCell id="RxQZ7hR19uwEo2QJ2o0d-0" value="" style="edgeStyle=orthogonalEdgeStyle;rounded=0;orthogonalLoop=1;jettySize=auto;html=1;" parent="WIyWlLk6GJQsqaUBKTNV-1" source="WIyWlLk6GJQsqaUBKTNV-12" target="WIyWlLk6GJQsqaUBKTNV-10" edge="1">
          <mxGeometry relative="1" as="geometry" />
        </mxCell>
        <mxCell id="WIyWlLk6GJQsqaUBKTNV-12" value="每隔3秒重试一次。无限重试" style="rounded=1;whiteSpace=wrap;html=1;fontSize=12;glass=0;strokeWidth=1;shadow=0;" parent="WIyWlLk6GJQsqaUBKTNV-1" vertex="1">
          <mxGeometry x="550" y="250" width="120" height="40" as="geometry" />
        </mxCell>
        <mxCell id="RxQZ7hR19uwEo2QJ2o0d-5" value="" style="edgeStyle=orthogonalEdgeStyle;rounded=0;orthogonalLoop=1;jettySize=auto;html=1;" parent="WIyWlLk6GJQsqaUBKTNV-1" source="RxQZ7hR19uwEo2QJ2o0d-2" target="RxQZ7hR19uwEo2QJ2o0d-4" edge="1">
          <mxGeometry relative="1" as="geometry" />
        </mxCell>
        <mxCell id="RxQZ7hR19uwEo2QJ2o0d-6" value="否" style="edgeLabel;html=1;align=center;verticalAlign=middle;resizable=0;points=[];" parent="RxQZ7hR19uwEo2QJ2o0d-5" vertex="1" connectable="0">
          <mxGeometry x="-0.0727" y="4" relative="1" as="geometry">
            <mxPoint as="offset" />
          </mxGeometry>
        </mxCell>
        <mxCell id="RxQZ7hR19uwEo2QJ2o0d-8" value="是，弹出更新界面" style="edgeStyle=orthogonalEdgeStyle;rounded=0;orthogonalLoop=1;jettySize=auto;html=1;" parent="WIyWlLk6GJQsqaUBKTNV-1" source="RxQZ7hR19uwEo2QJ2o0d-2" target="RxQZ7hR19uwEo2QJ2o0d-7" edge="1">
          <mxGeometry relative="1" as="geometry" />
        </mxCell>
        <mxCell id="RxQZ7hR19uwEo2QJ2o0d-2" value="获取到到程序版本。检查是否需要更新" style="rhombus;whiteSpace=wrap;html=1;shadow=0;strokeWidth=1;spacing=6;spacingTop=-4;" parent="WIyWlLk6GJQsqaUBKTNV-1" vertex="1">
          <mxGeometry x="330" y="400" width="140" height="110" as="geometry" />
        </mxCell>
        <mxCell id="RxQZ7hR19uwEo2QJ2o0d-22" value="" style="edgeStyle=orthogonalEdgeStyle;rounded=0;orthogonalLoop=1;jettySize=auto;html=1;" parent="WIyWlLk6GJQsqaUBKTNV-1" source="RxQZ7hR19uwEo2QJ2o0d-4" target="RxQZ7hR19uwEo2QJ2o0d-21" edge="1">
          <mxGeometry relative="1" as="geometry" />
        </mxCell>
        <mxCell id="RxQZ7hR19uwEo2QJ2o0d-23" value="否" style="edgeLabel;html=1;align=center;verticalAlign=middle;resizable=0;points=[];" parent="RxQZ7hR19uwEo2QJ2o0d-22" vertex="1" connectable="0">
          <mxGeometry x="-0.2" relative="1" as="geometry">
            <mxPoint as="offset" />
          </mxGeometry>
        </mxCell>
        <mxCell id="RxQZ7hR19uwEo2QJ2o0d-25" value="" style="edgeStyle=orthogonalEdgeStyle;rounded=0;orthogonalLoop=1;jettySize=auto;html=1;" parent="WIyWlLk6GJQsqaUBKTNV-1" source="RxQZ7hR19uwEo2QJ2o0d-4" target="RxQZ7hR19uwEo2QJ2o0d-24" edge="1">
          <mxGeometry relative="1" as="geometry" />
        </mxCell>
        <mxCell id="RxQZ7hR19uwEo2QJ2o0d-26" value="有更新" style="edgeLabel;html=1;align=center;verticalAlign=middle;resizable=0;points=[];" parent="RxQZ7hR19uwEo2QJ2o0d-25" vertex="1" connectable="0">
          <mxGeometry x="-0.1" relative="1" as="geometry">
            <mxPoint as="offset" />
          </mxGeometry>
        </mxCell>
        <mxCell id="RxQZ7hR19uwEo2QJ2o0d-4" value="默认包的资源版本检测是否有更新" style="rhombus;whiteSpace=wrap;html=1;shadow=0;strokeWidth=1;spacing=6;spacingTop=-4;" parent="WIyWlLk6GJQsqaUBKTNV-1" vertex="1">
          <mxGeometry x="325" y="595" width="150" height="100" as="geometry" />
        </mxCell>
        <mxCell id="RxQZ7hR19uwEo2QJ2o0d-15" style="edgeStyle=orthogonalEdgeStyle;rounded=0;orthogonalLoop=1;jettySize=auto;html=1;exitX=1;exitY=0.5;exitDx=0;exitDy=0;" parent="WIyWlLk6GJQsqaUBKTNV-1" source="RxQZ7hR19uwEo2QJ2o0d-7" target="RxQZ7hR19uwEo2QJ2o0d-4" edge="1">
          <mxGeometry relative="1" as="geometry" />
        </mxCell>
        <mxCell id="RxQZ7hR19uwEo2QJ2o0d-16" value="否" style="edgeLabel;html=1;align=center;verticalAlign=middle;resizable=0;points=[];" parent="RxQZ7hR19uwEo2QJ2o0d-15" vertex="1" connectable="0">
          <mxGeometry x="0.0706" relative="1" as="geometry">
            <mxPoint as="offset" />
          </mxGeometry>
        </mxCell>
        <mxCell id="RxQZ7hR19uwEo2QJ2o0d-40" value="" style="edgeStyle=orthogonalEdgeStyle;rounded=0;orthogonalLoop=1;jettySize=auto;html=1;" parent="WIyWlLk6GJQsqaUBKTNV-1" source="RxQZ7hR19uwEo2QJ2o0d-7" target="RxQZ7hR19uwEo2QJ2o0d-39" edge="1">
          <mxGeometry relative="1" as="geometry" />
        </mxCell>
        <mxCell id="RxQZ7hR19uwEo2QJ2o0d-7" value="判断是否强制更新" style="rhombus;whiteSpace=wrap;html=1;shadow=0;strokeWidth=1;spacing=6;spacingTop=-4;" parent="WIyWlLk6GJQsqaUBKTNV-1" vertex="1">
          <mxGeometry x="76" y="590" width="140" height="110" as="geometry" />
        </mxCell>
        <mxCell id="RxQZ7hR19uwEo2QJ2o0d-21" value="执行热更新程序的入口函数（开始游戏正式业务）" style="whiteSpace=wrap;html=1;shadow=0;strokeWidth=1;spacing=6;spacingTop=-4;fillColor=#fff2cc;strokeColor=#d6b656;" parent="WIyWlLk6GJQsqaUBKTNV-1" vertex="1">
          <mxGeometry x="631" y="615" width="120" height="60" as="geometry" />
        </mxCell>
        <mxCell id="RxQZ7hR19uwEo2QJ2o0d-37" style="edgeStyle=orthogonalEdgeStyle;rounded=0;orthogonalLoop=1;jettySize=auto;html=1;exitX=1;exitY=0.5;exitDx=0;exitDy=0;" parent="WIyWlLk6GJQsqaUBKTNV-1" source="RxQZ7hR19uwEo2QJ2o0d-24" target="RxQZ7hR19uwEo2QJ2o0d-21" edge="1">
          <mxGeometry relative="1" as="geometry" />
        </mxCell>
        <mxCell id="RxQZ7hR19uwEo2QJ2o0d-24" value="执行资源更新流程" style="whiteSpace=wrap;html=1;shadow=0;strokeWidth=1;spacing=6;spacingTop=-4;rounded=0;glass=0;" parent="WIyWlLk6GJQsqaUBKTNV-1" vertex="1">
          <mxGeometry x="340" y="810" width="125" height="60" as="geometry" />
        </mxCell>
        <mxCell id="RxQZ7hR19uwEo2QJ2o0d-39" value="跳转到更新地址" style="whiteSpace=wrap;html=1;shadow=0;strokeWidth=1;spacing=6;spacingTop=-4;" parent="WIyWlLk6GJQsqaUBKTNV-1" vertex="1">
          <mxGeometry x="86" y="810" width="120" height="60" as="geometry" />
        </mxCell>
      </root>
    </mxGraphModel>
  </diagram>
  <diagram id="Bng0AqlYDgaoMMWSQtTC" name="服务器启动流程">
    <mxGraphModel dx="1687" dy="984" grid="1" gridSize="10" guides="1" tooltips="1" connect="1" arrows="1" fold="1" page="1" pageScale="1" pageWidth="827" pageHeight="1169" math="0" shadow="0">
      <root>
        <mxCell id="0" />
        <mxCell id="1" parent="0" />
        <mxCell id="lFHb3DJ6jFnrcH7S9dAR-3" value="" style="edgeStyle=orthogonalEdgeStyle;rounded=0;orthogonalLoop=1;jettySize=auto;html=1;" edge="1" parent="1" source="lFHb3DJ6jFnrcH7S9dAR-1" target="lFHb3DJ6jFnrcH7S9dAR-2">
          <mxGeometry relative="1" as="geometry" />
        </mxCell>
        <mxCell id="lFHb3DJ6jFnrcH7S9dAR-1" value="启动开始" style="rounded=1;whiteSpace=wrap;html=1;fontSize=12;glass=0;strokeWidth=1;shadow=0;" vertex="1" parent="1">
          <mxGeometry x="240" y="10" width="120" height="40" as="geometry" />
        </mxCell>
        <mxCell id="lFHb3DJ6jFnrcH7S9dAR-7" value="" style="edgeStyle=orthogonalEdgeStyle;rounded=0;orthogonalLoop=1;jettySize=auto;html=1;" edge="1" parent="1" source="lFHb3DJ6jFnrcH7S9dAR-2" target="lFHb3DJ6jFnrcH7S9dAR-6">
          <mxGeometry relative="1" as="geometry" />
        </mxCell>
        <mxCell id="lFHb3DJ6jFnrcH7S9dAR-2" value="获取外部启动参数" style="rounded=1;whiteSpace=wrap;html=1;fontSize=12;glass=0;strokeWidth=1;shadow=0;" vertex="1" parent="1">
          <mxGeometry x="240" y="90" width="120" height="40" as="geometry" />
        </mxCell>
        <mxCell id="lFHb3DJ6jFnrcH7S9dAR-52" style="edgeStyle=orthogonalEdgeStyle;rounded=0;orthogonalLoop=1;jettySize=auto;html=1;exitX=0.5;exitY=1;exitDx=0;exitDy=0;entryX=0;entryY=0.5;entryDx=0;entryDy=0;" edge="1" parent="1" source="lFHb3DJ6jFnrcH7S9dAR-6" target="lFHb3DJ6jFnrcH7S9dAR-43">
          <mxGeometry relative="1" as="geometry" />
        </mxCell>
        <mxCell id="lFHb3DJ6jFnrcH7S9dAR-6" value="获取环境变量启动参数" style="rounded=1;whiteSpace=wrap;html=1;fontSize=12;glass=0;strokeWidth=1;shadow=0;" vertex="1" parent="1">
          <mxGeometry x="20" y="90" width="120" height="40" as="geometry" />
        </mxCell>
        <mxCell id="lFHb3DJ6jFnrcH7S9dAR-11" value="" style="edgeStyle=orthogonalEdgeStyle;rounded=0;orthogonalLoop=1;jettySize=auto;html=1;" edge="1" parent="1" source="lFHb3DJ6jFnrcH7S9dAR-8" target="lFHb3DJ6jFnrcH7S9dAR-10">
          <mxGeometry relative="1" as="geometry" />
        </mxCell>
        <mxCell id="lFHb3DJ6jFnrcH7S9dAR-12" value="否" style="edgeLabel;html=1;align=center;verticalAlign=middle;resizable=0;points=[];" vertex="1" connectable="0" parent="lFHb3DJ6jFnrcH7S9dAR-11">
          <mxGeometry x="-0.1278" y="-2" relative="1" as="geometry">
            <mxPoint as="offset" />
          </mxGeometry>
        </mxCell>
        <mxCell id="lFHb3DJ6jFnrcH7S9dAR-17" value="" style="edgeStyle=orthogonalEdgeStyle;rounded=0;orthogonalLoop=1;jettySize=auto;html=1;" edge="1" parent="1" source="lFHb3DJ6jFnrcH7S9dAR-8" target="lFHb3DJ6jFnrcH7S9dAR-16">
          <mxGeometry relative="1" as="geometry" />
        </mxCell>
        <mxCell id="lFHb3DJ6jFnrcH7S9dAR-8" value="判断是否存在指定启动参数" style="rhombus;whiteSpace=wrap;html=1;rounded=1;glass=0;strokeWidth=1;shadow=0;" vertex="1" parent="1">
          <mxGeometry x="245" y="360" width="110" height="100" as="geometry" />
        </mxCell>
        <mxCell id="lFHb3DJ6jFnrcH7S9dAR-14" value="" style="edgeStyle=orthogonalEdgeStyle;rounded=0;orthogonalLoop=1;jettySize=auto;html=1;" edge="1" parent="1" source="lFHb3DJ6jFnrcH7S9dAR-10" target="lFHb3DJ6jFnrcH7S9dAR-13">
          <mxGeometry relative="1" as="geometry" />
        </mxCell>
        <mxCell id="lFHb3DJ6jFnrcH7S9dAR-15" value="加载成功" style="edgeLabel;html=1;align=center;verticalAlign=middle;resizable=0;points=[];" vertex="1" connectable="0" parent="lFHb3DJ6jFnrcH7S9dAR-14">
          <mxGeometry x="0.1485" y="-2" relative="1" as="geometry">
            <mxPoint as="offset" />
          </mxGeometry>
        </mxCell>
        <mxCell id="lFHb3DJ6jFnrcH7S9dAR-18" style="edgeStyle=orthogonalEdgeStyle;rounded=0;orthogonalLoop=1;jettySize=auto;html=1;exitX=0.5;exitY=1;exitDx=0;exitDy=0;entryX=1;entryY=0.5;entryDx=0;entryDy=0;" edge="1" parent="1" source="lFHb3DJ6jFnrcH7S9dAR-10" target="lFHb3DJ6jFnrcH7S9dAR-16">
          <mxGeometry relative="1" as="geometry" />
        </mxCell>
        <mxCell id="lFHb3DJ6jFnrcH7S9dAR-19" value="加载失败" style="edgeLabel;html=1;align=center;verticalAlign=middle;resizable=0;points=[];" vertex="1" connectable="0" parent="lFHb3DJ6jFnrcH7S9dAR-18">
          <mxGeometry x="-0.3747" y="1" relative="1" as="geometry">
            <mxPoint as="offset" />
          </mxGeometry>
        </mxCell>
        <mxCell id="lFHb3DJ6jFnrcH7S9dAR-10" value="加载app_config.json配置文件" style="whiteSpace=wrap;html=1;rounded=1;glass=0;strokeWidth=1;shadow=0;" vertex="1" parent="1">
          <mxGeometry x="410" y="380" width="120" height="60" as="geometry" />
        </mxCell>
        <mxCell id="lFHb3DJ6jFnrcH7S9dAR-20" style="edgeStyle=orthogonalEdgeStyle;rounded=0;orthogonalLoop=1;jettySize=auto;html=1;exitX=0.5;exitY=1;exitDx=0;exitDy=0;entryX=1;entryY=0.5;entryDx=0;entryDy=0;" edge="1" parent="1" source="lFHb3DJ6jFnrcH7S9dAR-13" target="lFHb3DJ6jFnrcH7S9dAR-16">
          <mxGeometry relative="1" as="geometry" />
        </mxCell>
        <mxCell id="lFHb3DJ6jFnrcH7S9dAR-21" value="解析结束" style="edgeLabel;html=1;align=center;verticalAlign=middle;resizable=0;points=[];" vertex="1" connectable="0" parent="lFHb3DJ6jFnrcH7S9dAR-20">
          <mxGeometry x="-0.5908" y="-1" relative="1" as="geometry">
            <mxPoint y="-17" as="offset" />
          </mxGeometry>
        </mxCell>
        <mxCell id="lFHb3DJ6jFnrcH7S9dAR-13" value="解析app_config.json配置文件" style="whiteSpace=wrap;html=1;rounded=1;glass=0;strokeWidth=1;shadow=0;" vertex="1" parent="1">
          <mxGeometry x="600" y="380" width="120" height="60" as="geometry" />
        </mxCell>
        <mxCell id="lFHb3DJ6jFnrcH7S9dAR-23" value="" style="edgeStyle=orthogonalEdgeStyle;rounded=0;orthogonalLoop=1;jettySize=auto;html=1;" edge="1" parent="1" source="lFHb3DJ6jFnrcH7S9dAR-16" target="lFHb3DJ6jFnrcH7S9dAR-22">
          <mxGeometry relative="1" as="geometry" />
        </mxCell>
        <mxCell id="lFHb3DJ6jFnrcH7S9dAR-16" value="扫描所有实现了&lt;span style=&quot;background-color: initial;&quot;&gt;IAppStartUp&lt;/span&gt;&lt;div&gt;&lt;span style=&quot;background-color: initial;&quot;&gt;接口并标记了&lt;/span&gt;&lt;span style=&quot;background-color: initial;&quot;&gt;StartUpTag标签的启动器,并按照优先级排序&lt;/span&gt;&lt;/div&gt;" style="whiteSpace=wrap;html=1;rounded=1;glass=0;strokeWidth=1;shadow=0;" vertex="1" parent="1">
          <mxGeometry x="225" y="510" width="150" height="80" as="geometry" />
        </mxCell>
        <mxCell id="lFHb3DJ6jFnrcH7S9dAR-25" value="" style="edgeStyle=orthogonalEdgeStyle;rounded=0;orthogonalLoop=1;jettySize=auto;html=1;" edge="1" parent="1" source="lFHb3DJ6jFnrcH7S9dAR-22" target="lFHb3DJ6jFnrcH7S9dAR-24">
          <mxGeometry relative="1" as="geometry" />
        </mxCell>
        <mxCell id="lFHb3DJ6jFnrcH7S9dAR-26" value="否" style="edgeLabel;html=1;align=center;verticalAlign=middle;resizable=0;points=[];" vertex="1" connectable="0" parent="lFHb3DJ6jFnrcH7S9dAR-25">
          <mxGeometry x="-0.0224" y="4" relative="1" as="geometry">
            <mxPoint x="-1" as="offset" />
          </mxGeometry>
        </mxCell>
        <mxCell id="lFHb3DJ6jFnrcH7S9dAR-33" value="" style="edgeStyle=orthogonalEdgeStyle;rounded=0;orthogonalLoop=1;jettySize=auto;html=1;" edge="1" parent="1" source="lFHb3DJ6jFnrcH7S9dAR-22" target="lFHb3DJ6jFnrcH7S9dAR-32">
          <mxGeometry relative="1" as="geometry" />
        </mxCell>
        <mxCell id="lFHb3DJ6jFnrcH7S9dAR-22" value="获取是否有指定的启动参数" style="rhombus;whiteSpace=wrap;html=1;rounded=1;glass=0;strokeWidth=1;shadow=0;" vertex="1" parent="1">
          <mxGeometry x="220" y="630" width="160" height="90" as="geometry" />
        </mxCell>
        <mxCell id="lFHb3DJ6jFnrcH7S9dAR-39" style="edgeStyle=orthogonalEdgeStyle;rounded=0;orthogonalLoop=1;jettySize=auto;html=1;exitX=0.5;exitY=1;exitDx=0;exitDy=0;" edge="1" parent="1" source="lFHb3DJ6jFnrcH7S9dAR-24">
          <mxGeometry relative="1" as="geometry">
            <mxPoint x="300" y="800" as="targetPoint" />
          </mxGeometry>
        </mxCell>
        <mxCell id="lFHb3DJ6jFnrcH7S9dAR-40" value="设置默认配置" style="edgeLabel;html=1;align=center;verticalAlign=middle;resizable=0;points=[];" vertex="1" connectable="0" parent="lFHb3DJ6jFnrcH7S9dAR-39">
          <mxGeometry x="-0.0586" y="1" relative="1" as="geometry">
            <mxPoint as="offset" />
          </mxGeometry>
        </mxCell>
        <mxCell id="lFHb3DJ6jFnrcH7S9dAR-24" value="获取默认的保底配置" style="whiteSpace=wrap;html=1;rounded=1;glass=0;strokeWidth=1;shadow=0;" vertex="1" parent="1">
          <mxGeometry x="480" y="645" width="120" height="60" as="geometry" />
        </mxCell>
        <mxCell id="lFHb3DJ6jFnrcH7S9dAR-57" value="" style="edgeStyle=orthogonalEdgeStyle;rounded=0;orthogonalLoop=1;jettySize=auto;html=1;" edge="1" parent="1" source="lFHb3DJ6jFnrcH7S9dAR-29" target="lFHb3DJ6jFnrcH7S9dAR-56">
          <mxGeometry relative="1" as="geometry" />
        </mxCell>
        <mxCell id="lFHb3DJ6jFnrcH7S9dAR-29" value="启动指定的服务器" style="whiteSpace=wrap;html=1;rounded=1;glass=0;strokeWidth=1;shadow=0;" vertex="1" parent="1">
          <mxGeometry x="240" y="955" width="120" height="60" as="geometry" />
        </mxCell>
        <mxCell id="lFHb3DJ6jFnrcH7S9dAR-34" style="edgeStyle=orthogonalEdgeStyle;rounded=0;orthogonalLoop=1;jettySize=auto;html=1;exitX=0.5;exitY=1;exitDx=0;exitDy=0;entryX=0.5;entryY=0;entryDx=0;entryDy=0;" edge="1" parent="1" source="lFHb3DJ6jFnrcH7S9dAR-32" target="lFHb3DJ6jFnrcH7S9dAR-29">
          <mxGeometry relative="1" as="geometry" />
        </mxCell>
        <mxCell id="lFHb3DJ6jFnrcH7S9dAR-35" value="是" style="edgeLabel;html=1;align=center;verticalAlign=middle;resizable=0;points=[];" vertex="1" connectable="0" parent="lFHb3DJ6jFnrcH7S9dAR-34">
          <mxGeometry x="-0.1496" y="-2" relative="1" as="geometry">
            <mxPoint as="offset" />
          </mxGeometry>
        </mxCell>
        <mxCell id="lFHb3DJ6jFnrcH7S9dAR-37" value="" style="edgeStyle=orthogonalEdgeStyle;rounded=0;orthogonalLoop=1;jettySize=auto;html=1;" edge="1" parent="1" source="lFHb3DJ6jFnrcH7S9dAR-32" target="lFHb3DJ6jFnrcH7S9dAR-36">
          <mxGeometry relative="1" as="geometry" />
        </mxCell>
        <mxCell id="lFHb3DJ6jFnrcH7S9dAR-38" value="否" style="edgeLabel;html=1;align=center;verticalAlign=middle;resizable=0;points=[];" vertex="1" connectable="0" parent="lFHb3DJ6jFnrcH7S9dAR-37">
          <mxGeometry x="-0.1628" y="-3" relative="1" as="geometry">
            <mxPoint as="offset" />
          </mxGeometry>
        </mxCell>
        <mxCell id="lFHb3DJ6jFnrcH7S9dAR-32" value="&#xa;&lt;span style=&quot;color: rgb(0, 0, 0); font-family: Helvetica; font-size: 12px; font-style: normal; font-variant-ligatures: normal; font-variant-caps: normal; font-weight: 400; letter-spacing: normal; orphans: 2; text-align: center; text-indent: 0px; text-transform: none; widows: 2; word-spacing: 0px; -webkit-text-stroke-width: 0px; white-space: normal; background-color: rgb(251, 251, 251); text-decoration-thickness: initial; text-decoration-style: initial; text-decoration-color: initial; display: inline !important; float: none;&quot;&gt;从启动器中查找指定服务器类型的启动器&lt;/span&gt;&#xa;&#xa;" style="rhombus;whiteSpace=wrap;html=1;rounded=1;glass=0;strokeWidth=1;shadow=0;" vertex="1" parent="1">
          <mxGeometry x="225" y="807.5" width="150" height="95" as="geometry" />
        </mxCell>
        <mxCell id="lFHb3DJ6jFnrcH7S9dAR-58" style="edgeStyle=orthogonalEdgeStyle;rounded=0;orthogonalLoop=1;jettySize=auto;html=1;exitX=0.5;exitY=1;exitDx=0;exitDy=0;entryX=0.5;entryY=0;entryDx=0;entryDy=0;" edge="1" parent="1" source="lFHb3DJ6jFnrcH7S9dAR-36" target="lFHb3DJ6jFnrcH7S9dAR-56">
          <mxGeometry relative="1" as="geometry" />
        </mxCell>
        <mxCell id="lFHb3DJ6jFnrcH7S9dAR-36" value="按照优先级顺序启动所有的服务器" style="whiteSpace=wrap;html=1;rounded=1;glass=0;strokeWidth=1;shadow=0;" vertex="1" parent="1">
          <mxGeometry x="470" y="825" width="120" height="60" as="geometry" />
        </mxCell>
        <mxCell id="lFHb3DJ6jFnrcH7S9dAR-54" style="edgeStyle=orthogonalEdgeStyle;rounded=0;orthogonalLoop=1;jettySize=auto;html=1;exitX=0.5;exitY=1;exitDx=0;exitDy=0;entryX=0.5;entryY=0;entryDx=0;entryDy=0;" edge="1" parent="1" source="lFHb3DJ6jFnrcH7S9dAR-41" target="lFHb3DJ6jFnrcH7S9dAR-46">
          <mxGeometry relative="1" as="geometry" />
        </mxCell>
        <mxCell id="lFHb3DJ6jFnrcH7S9dAR-41" value="配置日志等级和存储路径等参数" style="whiteSpace=wrap;html=1;rounded=1;glass=0;strokeWidth=1;shadow=0;" vertex="1" parent="1">
          <mxGeometry x="500" y="160" width="120" height="60" as="geometry" />
        </mxCell>
        <mxCell id="lFHb3DJ6jFnrcH7S9dAR-53" style="edgeStyle=orthogonalEdgeStyle;rounded=0;orthogonalLoop=1;jettySize=auto;html=1;exitX=1;exitY=0.5;exitDx=0;exitDy=0;entryX=0;entryY=0.5;entryDx=0;entryDy=0;" edge="1" parent="1" source="lFHb3DJ6jFnrcH7S9dAR-43" target="lFHb3DJ6jFnrcH7S9dAR-41">
          <mxGeometry relative="1" as="geometry" />
        </mxCell>
        <mxCell id="lFHb3DJ6jFnrcH7S9dAR-43" value="将外部启动参数和环境变量参数融合,外部参数优先级最高" style="whiteSpace=wrap;html=1;rounded=1;glass=0;strokeWidth=1;shadow=0;" vertex="1" parent="1">
          <mxGeometry x="240" y="160" width="120" height="60" as="geometry" />
        </mxCell>
        <mxCell id="lFHb3DJ6jFnrcH7S9dAR-49" value="" style="edgeStyle=orthogonalEdgeStyle;rounded=0;orthogonalLoop=1;jettySize=auto;html=1;" edge="1" parent="1" source="lFHb3DJ6jFnrcH7S9dAR-46" target="lFHb3DJ6jFnrcH7S9dAR-48">
          <mxGeometry relative="1" as="geometry" />
        </mxCell>
        <mxCell id="lFHb3DJ6jFnrcH7S9dAR-46" value="配置JSON 序列化器" style="whiteSpace=wrap;html=1;rounded=1;glass=0;strokeWidth=1;shadow=0;" vertex="1" parent="1">
          <mxGeometry x="500" y="260" width="120" height="65" as="geometry" />
        </mxCell>
        <mxCell id="lFHb3DJ6jFnrcH7S9dAR-51" style="edgeStyle=orthogonalEdgeStyle;rounded=0;orthogonalLoop=1;jettySize=auto;html=1;exitX=0.5;exitY=1;exitDx=0;exitDy=0;entryX=0.5;entryY=0;entryDx=0;entryDy=0;" edge="1" parent="1" source="lFHb3DJ6jFnrcH7S9dAR-48" target="lFHb3DJ6jFnrcH7S9dAR-8">
          <mxGeometry relative="1" as="geometry" />
        </mxCell>
        <mxCell id="lFHb3DJ6jFnrcH7S9dAR-48" value="扫描和注册消息协议" style="whiteSpace=wrap;html=1;rounded=1;glass=0;strokeWidth=1;shadow=0;" vertex="1" parent="1">
          <mxGeometry x="240" y="260" width="120" height="65" as="geometry" />
        </mxCell>
        <mxCell id="lFHb3DJ6jFnrcH7S9dAR-60" value="" style="edgeStyle=orthogonalEdgeStyle;rounded=0;orthogonalLoop=1;jettySize=auto;html=1;" edge="1" parent="1" source="lFHb3DJ6jFnrcH7S9dAR-56" target="lFHb3DJ6jFnrcH7S9dAR-59">
          <mxGeometry relative="1" as="geometry" />
        </mxCell>
        <mxCell id="lFHb3DJ6jFnrcH7S9dAR-56" value="启动结束" style="whiteSpace=wrap;html=1;rounded=1;glass=0;strokeWidth=1;shadow=0;" vertex="1" parent="1">
          <mxGeometry x="470" y="955" width="120" height="60" as="geometry" />
        </mxCell>
        <mxCell id="lFHb3DJ6jFnrcH7S9dAR-62" value="" style="edgeStyle=orthogonalEdgeStyle;rounded=0;orthogonalLoop=1;jettySize=auto;html=1;" edge="1" parent="1" source="lFHb3DJ6jFnrcH7S9dAR-59" target="lFHb3DJ6jFnrcH7S9dAR-61">
          <mxGeometry relative="1" as="geometry" />
        </mxCell>
        <mxCell id="lFHb3DJ6jFnrcH7S9dAR-59" value="启动APM" style="whiteSpace=wrap;html=1;rounded=1;glass=0;strokeWidth=1;shadow=0;" vertex="1" parent="1">
          <mxGeometry x="470" y="1060" width="120" height="60" as="geometry" />
        </mxCell>
        <mxCell id="lFHb3DJ6jFnrcH7S9dAR-61" value="打印GameFrameX Logo" style="whiteSpace=wrap;html=1;rounded=1;glass=0;strokeWidth=1;shadow=0;" vertex="1" parent="1">
          <mxGeometry x="240" y="1060" width="120" height="60" as="geometry" />
        </mxCell>
      </root>
    </mxGraphModel>
  </diagram>
</mxfile>
